<?xml version="1.0" standalone="no"?>
<!DOCTYPE svg PUBLIC "-//W3C//DTD SVG 20010904//EN"
 "http://www.w3.org/TR/2001/REC-SVG-20010904/DTD/svg10.dtd">
<svg version="1.0" xmlns="http://www.w3.org/2000/svg"
 width="1127.000000pt" height="1280.000000pt" viewBox="0 0 1127.000000 1280.000000"
 preserveAspectRatio="xMidYMid meet">
<g transform="translate(0.000000,1280.000000) scale(0.100000,-0.100000)"
fill="#000000" stroke="none">
<path d="M5038 12765 c52 -45 92 -111 92 -152 0 -63 -82 -143 -147 -143 -56 0
-134 46 -249 147 -115 100 -164 130 -256 157 -69 20 -102 20 -117 2 -9 -11 -1
-19 43 -40 77 -38 136 -104 136 -153 0 -71 -60 -133 -128 -133 -41 0 -100 22
-217 80 -130 65 -399 140 -501 140 -61 0 -54 -14 31 -62 81 -45 105 -70 105
-108 0 -36 -52 -107 -95 -127 -41 -19 -131 -14 -500 32 -190 24 -219 25 -308
14 -53 -6 -99 -15 -102 -19 -2 -3 42 -27 98 -51 88 -39 105 -50 124 -84 20
-36 20 -40 5 -71 -14 -30 -21 -34 -71 -41 -56 -8 -304 -10 -546 -4 -142 3
-254 -11 -299 -37 -54 -32 -43 -39 63 -44 116 -4 148 -20 168 -82 20 -58 9
-80 -56 -114 -57 -31 -132 -51 -271 -73 -278 -43 -383 -70 -495 -127 l-70 -36
87 -7 c48 -4 101 -10 118 -14 73 -16 71 -120 -4 -176 -71 -53 -196 -106 -356
-153 -169 -48 -219 -66 -355 -128 -85 -38 -125 -63 -125 -77 0 -3 60 -6 132
-6 167 0 183 -7 175 -73 -7 -62 -45 -94 -207 -173 -69 -34 -184 -90 -256 -125
-100 -49 -147 -78 -198 -125 -36 -34 -71 -70 -77 -80 -10 -19 -9 -19 28 -3
125 55 178 63 216 34 44 -35 38 -77 -27 -168 -64 -91 -93 -119 -205 -198 -111
-77 -219 -187 -259 -262 -18 -33 -32 -62 -32 -65 0 -3 35 10 78 29 104 45 180
63 193 43 20 -32 9 -101 -30 -185 -35 -73 -56 -100 -176 -224 -105 -108 -143
-154 -165 -202 -41 -85 -38 -96 13 -56 71 57 97 70 143 70 55 0 70 -12 78 -60
5 -32 -5 -59 -79 -212 -72 -151 -144 -344 -131 -357 2 -2 21 12 41 32 43 40
64 44 90 15 16 -17 17 -32 12 -112 -4 -74 -16 -124 -56 -249 -28 -86 -51 -162
-51 -168 0 -6 11 -11 25 -11 34 0 82 -25 95 -49 24 -45 43 -171 43 -291 1
-144 -13 -232 -70 -433 -5 -15 1 -14 38 8 56 32 73 31 89 -2 36 -79 49 -200
57 -530 l5 -231 31 9 c17 5 39 7 48 4 21 -7 73 -104 93 -175 32 -112 66 -365
66 -493 l0 -61 29 28 28 27 18 -27 c42 -64 75 -264 75 -456 0 -76 4 -138 9
-138 5 0 24 22 42 50 19 27 37 50 40 50 18 1 158 -364 159 -413 0 -13 20 -27
63 -47 55 -25 63 -26 69 -12 15 37 7 96 -23 163 -16 38 -50 120 -74 182 -24
62 -59 146 -78 187 -19 41 -60 149 -90 240 -30 91 -75 224 -100 295 -25 72
-60 180 -77 240 -17 61 -57 191 -89 290 -67 206 -86 273 -79 280 3 3 19 -22
37 -55 18 -33 36 -60 41 -60 18 0 30 39 30 94 0 50 -3 57 -32 79 -52 38 -68
41 -68 12 0 -14 -5 -25 -10 -25 -26 0 -57 147 -109 510 -88 616 -95 694 -95
1010 1 371 21 573 95 945 34 166 71 283 148 455 55 125 66 145 134 265 25 44
60 106 78 137 18 32 72 111 121 175 49 65 134 178 189 250 172 228 343 385
689 633 222 158 343 231 578 349 313 156 535 246 927 376 357 119 544 161 895
202 131 15 235 18 675 18 458 0 531 -2 615 -18 52 -10 156 -24 230 -32 341
-37 615 -78 860 -131 152 -33 151 -33 119 -49 -23 -12 -46 -43 -37 -50 22 -17
76 -23 114 -14 43 11 44 12 30 34 -14 21 -13 23 7 29 21 5 106 0 155 -10 21
-4 22 -6 7 -27 -29 -42 -20 -57 35 -57 l49 0 -21 36 -21 35 24 -6 c51 -11 371
-77 582 -119 439 -88 594 -116 688 -126 53 -6 120 -14 148 -19 28 -4 51 -6 51
-4 0 16 -55 106 -78 129 -16 16 -72 46 -123 67 -81 33 -113 54 -229 149 -126
103 -231 168 -273 168 -15 0 -16 -3 -6 -22 7 -13 32 -49 57 -80 43 -56 44 -59
32 -90 -21 -53 -29 -58 -84 -58 -45 0 -65 7 -142 53 -143 85 -182 114 -289
216 -97 93 -173 144 -264 176 l-40 14 43 -57 c45 -59 66 -107 66 -149 0 -19
-10 -28 -46 -45 -57 -25 -105 -19 -192 22 -83 39 -133 74 -262 185 -135 115
-221 177 -294 211 -91 41 -100 28 -29 -41 48 -48 64 -72 79 -118 16 -53 17
-62 3 -100 l-14 -42 -80 0 c-69 1 -90 5 -150 33 -59 28 -89 53 -210 176 -109
112 -154 151 -202 175 -56 28 -143 51 -143 38 0 -3 23 -28 51 -57 79 -81 96
-137 59 -198 -44 -72 -130 -90 -214 -46 -20 10 -100 83 -179 160 -152 151
-209 190 -295 200 l-47 6 43 -37z"/>
<path d="M5213 12173 c-29 -9 -53 -19 -53 -23 0 -11 115 -30 179 -30 l53 0
-29 34 c-33 40 -65 44 -150 19z"/>
<path d="M5508 12177 c-49 -5 -88 -13 -88 -17 0 -5 38 -28 84 -51 l84 -43 83
12 c45 6 84 13 86 15 10 10 -14 41 -53 67 -46 33 -54 33 -196 17z"/>
<path d="M4245 12134 c-240 -37 -409 -86 -640 -186 -188 -82 -267 -123 -292
-150 -18 -21 -18 -21 32 -14 28 4 97 19 155 32 297 70 470 95 675 96 212 0
327 -15 514 -68 268 -76 312 -73 536 42 72 37 166 85 210 108 l80 41 -80 8
c-82 8 -407 48 -595 73 -103 14 -536 27 -595 18z"/>
<path d="M8433 12073 c-17 -6 -16 -28 3 -105 25 -98 68 -169 149 -245 111
-104 241 -215 269 -230 14 -7 71 -18 128 -24 191 -19 211 -28 312 -154 96
-118 153 -167 279 -239 108 -62 193 -99 251 -110 35 -7 37 -6 34 15 -2 16 -16
25 -60 39 -70 21 -111 45 -207 118 -116 89 -185 170 -201 236 -11 45 -11 58 0
71 9 11 9 15 1 15 -6 0 -15 10 -20 22 l-8 23 -7 -23 c-4 -12 -11 -22 -16 -22
-5 0 -39 33 -77 73 -67 72 -69 74 -138 86 -86 17 -251 70 -325 105 -30 14 -44
24 -30 20 140 -33 214 -56 265 -79 37 -17 86 -31 127 -34 54 -5 77 -13 120
-43 91 -62 95 -63 213 -63 107 0 248 25 261 47 9 14 -62 38 -113 38 -29 0 -96
17 -177 44 -111 37 -148 45 -243 50 -126 8 -173 21 -368 102 -200 83 -232 102
-324 190 -47 44 -92 79 -98 77z"/>
<path d="M5870 12055 c-89 -13 -279 -61 -384 -97 -93 -32 -183 -80 -265 -143
-89 -68 -112 -79 -277 -145 -70 -28 -140 -58 -154 -66 -23 -14 -18 -15 60 -10
117 6 183 26 340 101 74 36 138 65 143 65 4 0 -5 -19 -20 -42 -73 -113 -147
-203 -257 -314 -110 -110 -130 -125 -216 -167 -156 -75 -354 -113 -548 -105
-89 4 -130 10 -170 27 -53 21 -170 44 -287 55 -44 5 -66 3 -80 -8 -18 -13 -17
-15 21 -34 49 -25 154 -103 154 -114 0 -4 -33 8 -72 28 -133 67 -194 85 -310
91 -143 8 -298 -16 -298 -46 0 -5 35 -17 77 -26 110 -25 283 -86 437 -155 72
-32 152 -64 176 -70 25 -6 126 -13 225 -17 149 -5 195 -3 270 12 174 34 518
167 618 238 93 66 316 301 388 409 135 200 214 281 353 364 131 78 261 122
444 149 26 4 41 12 39 18 -5 17 -300 18 -407 2z"/>
<path d="M6354 12058 c-4 -6 4 -21 20 -35 23 -19 38 -23 97 -23 67 0 70 1 67
22 -2 16 -14 26 -43 34 -52 16 -132 17 -141 2z"/>
<path d="M6205 11938 c-161 -18 -298 -66 -432 -153 -109 -71 -182 -147 -283
-295 -98 -143 -262 -324 -355 -391 -126 -92 -357 -188 -451 -189 -15 0 -23 -8
-27 -26 l-5 -27 122 6 c118 6 254 34 316 67 97 50 269 161 304 195 23 22 83
101 133 175 51 74 111 154 135 178 l44 42 -109 -221 c-96 -195 -115 -227 -167
-278 -68 -67 -142 -109 -260 -146 -98 -30 -112 -37 -118 -53 -6 -18 140 -15
228 3 87 18 186 57 255 99 64 40 196 178 225 236 13 25 35 63 50 85 14 22 44
72 65 110 132 241 315 367 583 400 161 20 230 19 405 -9 84 -14 177 -27 207
-31 30 -3 78 -11 107 -16 67 -13 233 -26 233 -19 0 3 -21 16 -46 28 -32 16
-44 28 -42 40 5 28 30 24 95 -15 83 -51 298 -246 328 -297 12 -23 40 -93 60
-156 20 -63 47 -135 60 -160 37 -73 126 -147 255 -213 105 -54 122 -59 198
-64 45 -3 82 -2 82 3 -1 17 -55 80 -123 144 -53 49 -86 94 -151 204 -105 177
-156 246 -264 358 -104 108 -181 167 -286 220 -145 73 -365 109 -291 48 19
-16 19 -39 0 -46 -8 -3 -52 10 -97 29 -157 67 -296 96 -601 127 -211 21 -257
22 -382 8z"/>
<path d="M3138 11918 c-46 -20 -48 -22 -48 -60 l0 -40 68 7 c79 8 150 24 157
36 3 4 3 19 0 32 -13 49 -96 61 -177 25z"/>
<path d="M3840 11794 c-138 -20 -332 -71 -348 -92 -12 -15 -9 -18 25 -24 21
-4 57 -7 79 -7 54 -1 232 -36 310 -62 57 -18 64 -19 120 -4 119 32 257 45 476
45 268 0 289 5 206 54 -48 28 -210 69 -360 91 -120 18 -377 18 -508 -1z"/>
<path d="M2895 11734 c-130 -20 -365 -80 -470 -120 -102 -39 -328 -159 -455
-241 -152 -99 -429 -393 -498 -528 -19 -39 -62 -171 -62 -194 0 -19 29 -13
114 24 45 19 106 43 136 53 l55 19 63 114 c89 159 142 230 248 335 209 207
380 306 665 384 247 69 280 76 454 100 82 12 156 25 164 29 10 6 -2 13 -41 25
-69 20 -244 20 -373 0z"/>
<path d="M6522 11694 c-172 -29 -276 -77 -359 -167 -39 -43 -79 -105 -71 -112
2 -2 23 2 46 11 24 8 73 19 110 24 87 13 407 12 497 0 107 -16 293 -63 469
-120 185 -60 267 -78 379 -85 73 -5 85 -4 105 14 l24 21 -20 27 c-36 51 -56
60 -152 77 -52 8 -223 47 -379 86 -351 86 -426 100 -571 101 -94 1 -110 3 -85
11 17 6 109 11 210 11 179 0 316 -14 479 -49 39 -8 122 -18 184 -21 128 -7
137 -1 80 60 -27 28 -43 36 -88 41 -30 4 -80 11 -110 16 -56 9 -134 20 -295
40 -49 7 -114 16 -144 21 -76 13 -211 10 -309 -7z"/>
<path d="M8234 11701 c3 -5 42 -30 86 -56 114 -67 182 -126 215 -187 45 -85
163 -281 182 -304 18 -21 172 -138 249 -188 38 -25 137 -69 331 -147 66 -26
77 -28 116 -18 55 13 92 -1 158 -59 44 -39 96 -68 106 -58 8 8 -26 63 -71 113
-52 57 -158 129 -286 193 -214 107 -315 183 -383 287 -24 38 -101 126 -172
196 -109 109 -140 134 -209 168 -48 23 -113 45 -159 54 -88 17 -171 20 -163 6z"/>
<path d="M7877 11662 c2 -11 16 -23 30 -27 79 -19 251 -180 290 -270 12 -27
41 -94 64 -148 33 -77 56 -114 114 -180 210 -240 288 -282 660 -357 84 -17
134 -35 213 -74 l103 -52 -28 -20 c-20 -15 -50 -22 -108 -27 -105 -8 -180 -29
-290 -81 -91 -44 -145 -79 -134 -90 3 -3 86 15 185 41 199 52 169 50 549 35
193 -8 255 -14 315 -31 41 -12 111 -28 155 -37 44 -8 134 -28 200 -44 66 -16
163 -36 215 -44 52 -9 131 -27 175 -41 92 -29 224 -34 279 -11 38 16 76 60 76
88 0 15 -4 18 -17 13 -58 -25 -122 -44 -150 -45 -18 0 -33 1 -33 3 0 1 9 20
20 42 31 61 27 65 -37 39 -39 -16 -78 -24 -120 -24 -88 0 -94 3 -86 55 l6 44
-54 -15 c-30 -8 -89 -17 -131 -21 l-78 -6 0 47 c0 25 -1 46 -2 46 -2 0 -27 -9
-56 -20 -62 -24 -102 -25 -177 -6 -73 20 -73 19 -81 71 -3 25 -8 45 -11 45 -2
0 -18 -7 -35 -16 -16 -9 -58 -16 -91 -17 l-61 -2 -18 38 c-10 20 -24 37 -31
37 -7 0 -44 -16 -83 -35 -86 -44 -155 -65 -211 -65 l-43 0 0 56 c0 50 2 55 18
49 64 -28 119 -36 169 -25 29 6 55 15 58 20 8 13 -60 67 -125 100 -32 16 -120
50 -197 76 -179 60 -262 99 -381 177 -141 94 -236 181 -302 277 -44 64 -234
270 -290 314 -101 79 -219 123 -357 133 -79 6 -82 5 -76 -15z"/>
<path d="M3165 11640 c-177 -24 -347 -62 -500 -111 -92 -29 -140 -52 -205 -95
-79 -53 -257 -220 -246 -231 10 -10 80 21 144 64 94 63 164 98 269 132 189 62
379 86 603 78 187 -7 281 -27 700 -147 270 -78 399 -100 574 -100 131 1 200
16 303 65 93 43 175 101 269 188 62 58 110 124 99 135 -2 3 -57 -21 -122 -51
-212 -100 -317 -130 -513 -148 -161 -15 -220 -4 -501 96 -114 41 -236 79 -271
85 -34 7 -103 21 -153 32 -131 28 -283 31 -450 8z"/>
<path d="M4285 11586 c-50 -11 -64 -27 -46 -55 6 -10 32 -16 74 -19 56 -4 67
-1 92 20 24 21 26 27 16 46 -13 25 -53 28 -136 8z"/>
<path d="M4484 11557 c-55 -50 -40 -61 90 -65 100 -4 103 -3 119 21 16 25 16
26 -20 48 -23 15 -58 25 -94 27 -54 4 -59 2 -95 -31z"/>
<path d="M9875 11551 c-119 -42 -199 -96 -221 -149 -18 -45 -18 -52 4 -52 11
0 38 -13 62 -29 l44 -29 27 29 c42 45 104 69 182 69 86 0 134 -19 149 -60 16
-47 42 -36 46 19 3 36 -1 48 -24 72 -41 43 -22 35 34 -13 27 -24 63 -51 81
-60 57 -31 31 -50 -36 -26 -18 6 -35 9 -39 5 -12 -12 26 -57 67 -78 37 -18 55
-20 158 -17 64 2 124 8 134 12 25 12 21 -7 -7 -41 -14 -16 -28 -41 -31 -55 -6
-22 -3 -27 15 -30 l22 -3 -23 -29 -22 -28 21 6 c12 3 32 9 45 12 22 7 187 167
187 183 0 17 -98 51 -263 91 -195 47 -227 60 -326 129 -79 54 -165 91 -209 90
-15 0 -50 -8 -77 -18z"/>
<path d="M3140 11434 c-196 -18 -253 -26 -307 -44 -65 -21 -298 -158 -288
-168 3 -4 83 -7 178 -7 146 -1 181 -4 229 -22 l58 -20 63 27 c34 14 123 61
197 103 74 42 151 82 169 88 l35 12 -40 14 c-40 14 -214 24 -294 17z"/>
<path d="M6485 11399 c-65 -14 -115 -32 -115 -40 0 -4 21 -25 47 -46 26 -21
69 -59 95 -84 42 -40 48 -51 48 -87 0 -49 -36 -96 -103 -135 -93 -55 -368
-135 -619 -181 -75 -14 -184 -37 -242 -51 -58 -14 -119 -25 -136 -25 -24 0
-35 -7 -48 -30 l-17 -30 -127 0 c-186 0 -338 -36 -429 -101 -29 -20 -30 -23
-13 -29 21 -8 149 -23 339 -40 118 -11 274 -35 410 -65 39 -8 85 -15 102 -15
32 0 32 -1 21 -27 -7 -16 -13 -29 -13 -30 -1 -2 -27 6 -59 17 -80 29 -176 47
-355 70 -184 24 -222 25 -217 8 3 -7 7 -25 10 -40 5 -21 12 -28 30 -28 28 0
50 -19 71 -61 9 -16 18 -29 22 -29 3 0 3 28 -1 62 l-6 63 26 -38 c27 -40 54
-99 54 -118 0 -7 -15 -10 -40 -7 -22 2 -40 1 -39 -2 0 -3 15 -17 34 -33 l33
-27 22 35 c35 57 56 46 133 -74 112 -171 131 -210 128 -254 -1 -21 2 -44 9
-52 9 -11 -3 -14 -67 -19 -43 -4 -114 -11 -157 -16 -150 -19 -332 -10 -538 26
-35 6 -39 3 -110 -68 -145 -147 -357 -212 -567 -174 -88 16 -101 14 -101 -10
0 -25 -36 -87 -76 -131 -28 -30 -74 -60 -159 -102 -197 -97 -323 -131 -491
-131 l-95 0 16 -30 c19 -36 19 -110 2 -153 -41 -96 -355 -312 -517 -356 -101
-27 -145 -30 -145 -11 0 10 18 18 59 25 69 12 94 36 61 61 -45 35 -148 -4
-181 -68 -15 -28 -14 -34 2 -69 16 -37 16 -41 -1 -79 -15 -33 -23 -40 -46 -40
-22 0 -35 -10 -58 -43 -62 -91 -139 -156 -245 -207 -161 -76 -180 -80 -451
-87 -132 -3 -302 -3 -377 2 l-137 7 31 39 c17 21 76 71 131 111 55 40 134 101
176 134 78 63 221 150 221 134 0 -10 -61 -93 -98 -132 -14 -16 -22 -28 -18
-28 20 0 85 43 117 77 42 46 146 183 178 236 22 37 22 37 2 37 -11 0 -98 -40
-193 -88 -95 -49 -209 -103 -253 -120 -45 -18 -157 -74 -250 -125 l-170 -93
-22 -65 c-40 -120 -42 -235 -5 -278 17 -19 19 -20 137 -4 106 14 164 15 485 5
201 -7 385 -16 409 -21 27 -5 51 -18 62 -32 l17 -23 29 25 c37 31 87 88 145
164 25 33 73 90 106 127 33 36 63 77 68 90 4 12 18 41 33 63 14 22 40 67 58
100 l32 60 -5 -55 c-7 -64 -12 -72 -209 -328 -77 -100 -170 -232 -207 -292
-37 -61 -69 -107 -71 -103 -2 5 -10 25 -16 45 -14 42 -72 98 -102 98 -18 0
-19 -4 -13 -37 4 -20 7 -73 7 -117 1 -87 0 -90 -90 -292 -67 -149 -99 -192
-204 -275 -50 -39 -88 -74 -85 -76 3 -3 19 -8 37 -12 44 -9 57 -49 58 -175 1
-78 -5 -125 -31 -228 -33 -137 -47 -165 -148 -294 -32 -41 -41 -59 -31 -62 8
-3 30 -20 51 -38 32 -29 39 -43 51 -106 21 -109 19 -370 -4 -484 -19 -90 -19
-92 2 -192 23 -109 45 -290 39 -319 -2 -10 -11 32 -21 92 -10 61 -38 191 -62
290 -24 99 -47 205 -50 235 -10 79 -31 176 -75 330 -54 195 -58 210 -85 370
-13 80 -35 206 -49 280 -14 74 -34 196 -46 270 -11 74 -29 180 -40 235 -10 55
-24 134 -30 175 -23 148 -52 285 -73 350 l-22 65 -40 -3 c-22 -2 -41 -5 -43
-7 -2 -1 15 -68 37 -148 42 -155 57 -230 91 -452 12 -77 44 -252 71 -390 95
-479 108 -551 133 -722 30 -201 39 -244 66 -313 22 -55 26 -74 71 -280 41
-191 55 -264 68 -349 6 -41 25 -118 41 -170 35 -116 158 -734 175 -881 l6 -55
-55 113 c-97 199 -221 397 -363 584 -99 129 -100 130 -129 93 -13 -17 -24 -33
-24 -37 0 -4 30 -45 67 -90 104 -129 214 -304 311 -497 169 -331 212 -450 253
-691 19 -112 16 -395 -5 -504 -21 -106 -67 -256 -73 -238 -3 7 0 55 6 107 24
203 11 475 -35 755 -30 180 -56 265 -121 393 l-47 92 -12 -130 c-6 -71 -15
-157 -19 -190 -5 -46 -1 -89 18 -185 56 -275 60 -310 61 -500 2 -334 -63 -525
-231 -681 -119 -110 -243 -152 -371 -125 -200 42 -304 180 -289 386 12 176 93
305 339 541 109 104 193 194 224 240 66 95 171 278 191 332 21 55 30 337 14
422 -23 121 -95 243 -262 442 -85 101 -95 110 -162 138 -66 27 -82 29 -192 30
-82 0 -127 -4 -143 -13 -13 -8 -22 -16 -19 -18 2 -2 39 -13 83 -25 111 -28
166 -56 269 -136 74 -57 103 -87 162 -174 96 -139 103 -161 103 -330 0 -155
-14 -238 -60 -357 -45 -118 -112 -206 -317 -416 -265 -273 -352 -390 -402
-545 -59 -182 9 -445 149 -574 178 -166 439 -188 693 -60 199 100 322 232 438
468 78 161 107 265 127 457 28 268 -3 594 -118 1258 -51 293 -73 464 -115 885
-30 299 -15 768 35 1101 47 313 76 426 184 717 36 98 66 184 66 191 0 7 23 57
50 112 28 54 64 131 80 169 45 106 110 211 224 363 404 534 914 990 1353 1210
211 106 516 227 763 301 58 18 137 43 175 56 103 34 180 51 375 84 264 45 321
50 634 61 319 11 439 5 696 -35 85 -13 205 -31 265 -40 305 -44 464 -82 707
-171 257 -94 414 -161 641 -276 251 -127 499 -293 684 -459 91 -81 341 -362
440 -494 79 -106 266 -415 332 -550 93 -189 191 -407 221 -490 18 -49 74 -198
125 -330 51 -132 102 -268 112 -302 16 -58 21 -64 57 -79 l40 -15 -27 -22 -27
-22 35 -106 c46 -141 79 -310 110 -559 46 -381 44 -369 88 -370 15 0 17 10 17
78 0 42 -9 124 -20 182 -14 72 -21 156 -22 265 -3 174 3 207 63 327 16 32 29
60 29 62 0 3 -18 10 -39 16 -51 14 -129 85 -166 152 -29 52 -30 57 -30 190 l0
138 -28 11 c-40 17 -93 84 -114 143 -15 41 -18 83 -17 218 0 185 5 170 -67
182 -26 5 -49 19 -77 50 -73 79 -104 164 -122 330 -6 54 -13 102 -16 107 -3 5
-17 9 -32 9 -44 0 -99 19 -130 45 -33 27 -104 173 -127 260 -9 33 -19 103 -23
155 l-7 95 -70 5 c-61 4 -77 10 -113 39 -58 45 -130 135 -158 196 -13 28 -31
88 -42 135 l-18 85 -100 5 c-90 5 -106 8 -172 43 -106 55 -153 109 -226 259
l-61 127 -50 1 c-193 1 -458 62 -552 126 -50 34 -113 113 -113 140 0 22 -16
24 -89 9 -68 -15 -75 -14 -183 10 -99 22 -117 30 -150 62 -34 33 -69 91 -82
136 -5 16 -13 17 -83 10 -119 -12 -398 -9 -493 6 -167 25 -308 83 -469 189
-101 68 -128 98 -201 233 -62 112 -62 119 3 122 18 0 67 -5 110 -11 43 -7 132
-12 197 -12 l118 0 46 -35 c26 -19 48 -35 51 -35 3 0 27 16 54 35 93 67 143
84 376 126 157 29 436 105 610 165 212 74 266 84 545 94 140 6 263 13 272 16
31 9 22 44 -14 56 -98 34 -248 122 -328 193 -69 61 -88 73 -108 68 -13 -3 -69
-6 -125 -7 -110 -1 -192 18 -380 90 -136 52 -189 43 -126 -22 44 -45 165 -107
274 -139 70 -21 120 -28 225 -32 129 -6 137 -7 170 -34 19 -16 60 -42 90 -58
30 -17 48 -31 40 -31 -30 0 -217 -30 -285 -46 -38 -8 -130 -35 -204 -60 -75
-24 -212 -63 -306 -85 -652 -154 -700 -167 -746 -199 -25 -19 -27 -19 -78 0
-33 13 -76 20 -120 20 -75 0 -334 24 -421 40 -30 5 -102 20 -160 34 -58 13
-127 27 -155 31 -114 17 -75 26 90 22 120 -4 219 -13 335 -32 152 -25 181 -27
356 -22 174 5 202 9 295 36 57 16 196 53 309 81 435 109 800 223 769 240 -8 5
-50 13 -94 19 -148 22 -189 33 -300 80 l-109 47 -41 -22 c-45 -25 -132 -50
-424 -124 -112 -28 -242 -64 -290 -80 -73 -24 -183 -53 -291 -76 -152 -33
-475 -62 -530 -47 -19 5 -36 16 -38 25 -2 13 14 17 90 22 104 8 375 49 428 65
19 6 86 20 150 32 204 37 440 115 537 178 71 46 77 53 96 117 14 48 14 54 -4
94 -10 23 -19 44 -19 46 0 7 135 3 185 -6 43 -8 332 -50 344 -50 12 0 -49 55
-84 75 -69 41 -216 93 -324 114 -109 22 -271 27 -346 10z"/>
<path d="M5998 11357 c-32 -9 -38 -16 -47 -53 -14 -56 -14 -74 2 -74 18 0 128
56 157 79 l25 21 -24 20 c-25 22 -55 23 -113 7z"/>
<path d="M6246 11334 c-110 -40 -101 -114 12 -114 80 0 107 43 67 104 -20 29
-25 30 -79 10z"/>
<path d="M9461 11328 c7 -13 20 -33 29 -45 31 -40 214 -183 270 -211 52 -25
63 -27 184 -26 l130 1 -52 -26 c-29 -14 -52 -28 -52 -32 0 -4 26 -10 58 -13
128 -15 211 -56 233 -114 l10 -25 27 25 c27 25 80 48 112 48 12 0 21 -13 29
-45 15 -61 44 -76 80 -42 35 34 125 52 180 37 39 -10 41 -12 41 -52 0 -40 0
-40 31 -34 17 3 44 17 61 31 54 46 147 23 186 -45 20 -36 48 -39 87 -8 l28 22
15 -22 c14 -22 47 -29 68 -14 17 11 58 226 51 272 -9 66 -126 212 -202 253
-62 33 -147 29 -228 -11 -69 -34 -127 -90 -127 -122 0 -32 46 -76 112 -105 59
-27 61 -28 38 -39 -15 -6 -115 -11 -245 -11 -204 -1 -223 0 -260 19 -33 17
-57 21 -143 20 -98 -1 -103 0 -100 19 2 15 15 24 48 32 25 7 86 28 135 47 50
20 104 39 120 42 17 4 44 18 60 32 29 25 30 25 5 20 -14 -4 -69 -14 -124 -24
l-98 -17 -50 55 c-55 59 -52 59 -89 -8 -18 -33 -52 -42 -154 -42 -115 0 -219
42 -279 112 -28 32 -39 39 -48 30 -19 -19 -54 -14 -108 13 -64 33 -85 33 -69
3z m1558 -171 c14 -14 38 -27 53 -31 28 -6 97 -92 110 -136 4 -13 3 -42 -3
-63 -8 -29 -14 -37 -26 -32 -49 18 -113 24 -206 19 -66 -5 -106 -3 -110 3 -7
11 55 19 221 30 98 6 102 7 96 27 -14 45 -36 78 -66 96 -28 17 -34 17 -59 4
-43 -22 -108 -18 -136 8 -30 28 -29 53 3 85 21 21 32 24 61 20 20 -4 48 -17
62 -30z"/>
<path d="M9885 11332 c-56 -19 -65 -37 -36 -73 l19 -24 18 21 c11 11 18 18 17
15 -6 -11 21 -31 42 -31 25 0 35 22 35 78 0 38 -15 40 -95 14z"/>
<path d="M10020 11284 c0 -30 4 -44 12 -42 17 6 26 40 17 66 -14 37 -29 25
-29 -24z"/>
<path d="M5852 11184 c-47 -37 -99 -144 -69 -144 29 0 115 31 140 50 l26 20
-25 25 c-13 13 -24 36 -24 50 0 31 -7 31 -48 -1z"/>
<path d="M6023 11195 c-11 -8 -28 -35 -36 -60 l-16 -45 34 0 c40 0 124 17 144
29 22 14 5 59 -29 76 -37 19 -70 19 -97 0z"/>
<path d="M6338 11191 c-47 -10 -68 -27 -68 -57 0 -31 33 -48 95 -48 81 0 105
10 105 42 0 64 -36 81 -132 63z"/>
<path d="M2495 11170 c-114 -9 -234 -32 -311 -61 -77 -29 -212 -113 -267 -167
-45 -44 -83 -99 -75 -108 2 -2 60 19 129 47 68 28 174 65 234 82 102 29 121
32 260 32 127 -1 163 -4 235 -24 111 -32 268 -95 407 -164 61 -31 164 -73 229
-92 64 -19 120 -38 125 -40 25 -16 222 -58 334 -71 143 -17 267 -14 425 12 96
16 302 79 370 114 37 19 67 47 58 55 -3 3 -54 -4 -114 -15 -278 -50 -486 -32
-734 64 -47 19 -114 41 -150 51 -69 18 -198 69 -395 155 -304 133 -430 154
-760 130z"/>
<path d="M6832 11117 c-17 -48 -15 -65 9 -78 17 -8 31 -8 60 0 46 14 52 23 44
60 -4 21 -15 33 -37 40 -50 18 -63 14 -76 -22z"/>
<path d="M6133 11058 c-27 -30 -43 -62 -43 -87 0 -19 6 -21 53 -21 61 0 97 16
108 47 7 19 2 27 -36 53 -52 36 -56 36 -82 8z"/>
<path d="M9370 11025 c19 -20 84 -61 145 -92 127 -65 196 -125 287 -250 33
-46 62 -83 65 -83 2 0 13 5 24 10 28 15 55 -3 90 -60 39 -63 63 -71 154 -49
71 17 141 46 132 55 -3 3 -35 10 -73 15 -97 14 -142 42 -180 112 -41 77 -89
125 -210 207 -94 64 -110 71 -225 100 -68 17 -148 40 -179 51 -30 10 -56 19
-59 19 -3 0 10 -16 29 -35z"/>
<path d="M5900 11027 c-78 -41 -115 -82 -89 -98 22 -14 136 -10 173 5 52 22
53 35 10 72 -43 37 -57 40 -94 21z"/>
<path d="M2275 10916 c-94 -54 -338 -162 -445 -198 -41 -14 -119 -40 -172 -57
-132 -42 -274 -106 -436 -197 -114 -65 -151 -91 -223 -163 -139 -139 -270
-359 -357 -597 -38 -102 -81 -260 -96 -344 -14 -79 -36 -289 -36 -341 0 -56
25 -159 38 -159 4 0 27 29 51 64 42 63 43 66 47 158 6 162 43 289 134 458 90
165 165 275 240 350 62 63 244 193 360 258 87 49 524 236 645 277 61 20 133
50 160 65 28 16 145 76 260 133 179 88 368 188 385 204 8 7 -39 42 -92 69 -66
33 -154 52 -278 59 l-105 6 -80 -45z"/>
<path d="M5696 10929 c-31 -24 -34 -49 -6 -49 23 0 60 33 60 55 0 21 -23 19
-54 -6z"/>
<path d="M4867 10788 c-12 -28 -12 -36 1 -55 17 -27 48 -29 98 -8 63 26 36 71
-53 90 -30 6 -33 4 -46 -27z"/>
<path d="M10225 10800 c-38 -11 -83 -23 -98 -26 -29 -7 -57 -47 -57 -82 0 -49
92 -79 193 -62 179 29 273 -19 333 -170 33 -83 53 -96 115 -80 49 13 77 6 105
-26 l20 -25 42 31 c34 24 42 36 42 61 0 28 -2 31 -22 24 -13 -4 -48 -9 -79
-12 l-55 -5 -13 58 c-19 86 -67 180 -120 235 l-47 49 -68 0 c-51 0 -73 5 -94
20 -40 30 -114 34 -197 10z"/>
<path d="M4730 10771 c-71 -22 -100 -48 -100 -91 0 -23 19 -30 83 -30 47 0
117 27 117 45 0 9 -63 85 -69 84 -3 0 -17 -4 -31 -8z"/>
<path d="M1248 10743 c-34 -37 -48 -66 -48 -100 0 -49 13 -59 50 -37 40 23 69
102 51 141 -14 30 -22 29 -53 -4z"/>
<path d="M8477 10739 c-162 -65 -339 -91 -642 -94 -145 -1 -277 -7 -315 -14
-155 -30 -358 -115 -400 -169 -11 -14 -18 -27 -16 -30 3 -2 42 1 87 7 139 19
224 14 340 -18 302 -84 547 -109 780 -81 220 27 247 33 369 80 69 26 212 74
318 106 214 64 221 72 74 81 -115 7 -177 -9 -388 -97 -93 -39 -189 -78 -214
-86 -78 -24 -338 -38 -454 -25 -94 11 -546 103 -591 120 -44 17 110 32 435 41
293 8 351 13 465 35 217 43 380 95 372 119 -5 15 -60 32 -122 39 -36 4 -63 0
-98 -14z"/>
<path d="M2801 10691 c-17 -16 -35 -41 -41 -55 -10 -29 -19 -29 -102 -1 -32
10 -42 9 -82 -8 -39 -17 -46 -24 -46 -48 0 -65 56 -73 161 -24 l54 25 3 -33
c4 -39 18 -57 44 -57 23 0 34 -26 18 -45 -6 -7 -26 -15 -43 -17 -29 -3 -32 -6
-35 -40 l-3 -38 70 0 70 0 14 48 c14 47 14 47 -11 52 -38 7 -37 25 3 48 58 35
39 91 -25 77 -29 -6 -31 -5 -28 16 3 21 12 25 74 38 39 8 79 11 88 8 15 -6 15
-9 1 -36 -8 -17 -15 -33 -15 -37 0 -10 193 4 224 16 18 6 26 17 26 34 0 25
-21 36 -69 36 -13 0 -80 14 -150 30 -69 17 -136 33 -148 35 -14 3 -31 -5 -52
-24z"/>
<path d="M4481 10630 c-30 -21 -58 -44 -62 -51 -10 -17 -2 -29 20 -29 17 0 51
-29 51 -43 0 -3 -10 -7 -22 -9 -18 -2 -24 -11 -26 -35 l-3 -33 75 0 c59 0 76
3 76 14 0 8 -16 20 -35 26 -23 8 -35 18 -35 30 0 25 27 50 54 50 12 0 31 6 41
14 17 12 16 16 -20 60 -22 25 -44 46 -50 46 -5 0 -34 -18 -64 -40z"/>
<path d="M3236 10566 c-44 -44 -45 -62 -7 -69 51 -10 211 23 211 44 0 14 -72
47 -121 54 -44 7 -48 5 -83 -29z"/>
<path d="M2385 10558 c-42 -15 -65 -37 -65 -64 0 -54 87 -55 140 -2 42 42 38
72 -10 75 -19 1 -48 -3 -65 -9z"/>
<path d="M4233 10555 c-18 -8 -33 -17 -33 -20 0 -3 15 -14 33 -25 45 -28 108
-26 143 4 l28 23 -31 17 c-39 20 -97 20 -140 1z"/>
<path d="M4655 10547 c-17 -8 -36 -21 -44 -30 -12 -15 -9 -19 25 -34 22 -9 74
-18 117 -21 89 -5 98 5 50 58 -33 36 -100 48 -148 27z"/>
<path d="M3015 10516 c-57 -11 -60 -12 -63 -43 -3 -28 1 -33 22 -39 32 -8 90
3 129 22 27 15 49 51 40 67 -6 10 -55 7 -128 -7z"/>
<path d="M3531 10501 c-10 -7 -8 -12 10 -25 27 -19 43 -20 70 -5 16 8 18 13 8
25 -13 15 -66 19 -88 5z"/>
<path d="M2550 10468 c-76 -38 -49 -88 48 -88 49 0 82 26 82 65 0 48 -59 58
-130 23z"/>
<path d="M3166 10449 c-16 -12 -26 -30 -26 -46 0 -25 0 -25 63 -18 65 8 105
23 126 49 11 13 9 17 -14 26 -46 17 -119 12 -149 -11z"/>
<path d="M2145 10428 c-60 -23 -115 -63 -115 -83 0 -21 32 -35 87 -38 l48 -2
28 54 c29 59 35 92 15 90 -7 -1 -35 -10 -63 -21z"/>
<path d="M2314 10387 c-22 -19 -26 -29 -20 -50 6 -25 10 -27 62 -27 64 0 94
13 94 40 0 25 -46 60 -81 60 -15 0 -40 -10 -55 -23z"/>
<path d="M2963 10395 c-36 -15 -49 -45 -33 -76 10 -18 18 -21 55 -16 23 4 54
12 68 18 27 12 53 61 42 78 -9 15 -94 13 -132 -4z"/>
<path d="M9495 10378 c-22 -5 -109 -8 -192 -5 -84 2 -153 1 -153 -3 0 -39 102
-76 280 -100 288 -40 359 -51 465 -70 114 -21 559 -49 572 -36 4 4 2 15 -3 24
-8 12 -31 19 -75 23 -35 4 -77 12 -93 18 -39 16 -96 28 -261 57 -77 13 -167
33 -200 44 -67 21 -253 61 -282 59 -10 -1 -36 -5 -58 -11z"/>
<path d="M2550 10327 c-49 -9 -66 -16 -68 -30 -6 -30 25 -66 67 -77 32 -8 47
-7 86 10 46 20 46 20 43 62 -3 40 -5 43 -33 45 -16 1 -59 -4 -95 -10z"/>
<path d="M5845 10318 c16 -53 71 -142 104 -169 106 -87 394 -199 664 -257 73
-16 89 -17 94 -6 9 24 -2 35 -52 54 -198 74 -244 92 -272 107 -40 22 -135 140
-170 211 -19 38 -32 54 -52 58 -14 3 -34 8 -43 11 -10 2 -33 -1 -52 -8 -29
-10 -50 -10 -123 4 -110 21 -106 21 -98 -5z"/>
<path d="M1867 10298 c-42 -11 -60 -36 -55 -75 2 -19 13 -29 42 -41 l39 -15
38 41 c43 45 47 62 23 86 -17 18 -32 18 -87 4z"/>
<path d="M2725 10274 c-24 -58 -15 -94 25 -94 28 0 140 61 140 76 0 32 -38 54
-95 54 -53 0 -55 -1 -70 -36z"/>
<path d="M2085 10239 c-72 -29 -78 -38 -48 -71 35 -39 133 -45 133 -8 0 9 3
38 6 64 8 55 7 55 -91 15z"/>
<path d="M2303 10239 c-35 -11 -63 -24 -63 -28 0 -14 59 -60 84 -67 13 -3 38
-4 57 -2 34 3 34 4 39 61 l5 57 -30 -1 c-16 0 -58 -9 -92 -20z"/>
<path d="M1516 10166 l-129 -51 -27 -110 c-32 -129 -76 -244 -129 -335 -74
-126 -174 -286 -245 -389 -65 -95 -115 -159 -360 -459 -146 -179 -195 -308
-196 -509 0 -103 18 -179 54 -228 14 -19 15 -19 34 -2 18 17 18 21 5 80 -25
107 9 298 68 384 18 26 132 146 254 267 386 385 541 600 668 926 94 242 138
382 135 431 l-3 47 -129 -52z"/>
<path d="M2501 10124 c-7 -37 -10 -69 -7 -72 3 -3 27 3 53 13 52 20 108 69
118 103 6 21 5 22 -73 22 l-80 0 -11 -66z"/>
<path d="M1922 10134 c-59 -15 -98 -38 -113 -65 -14 -27 40 -53 114 -53 47 -1
61 3 73 18 19 27 18 80 -3 98 -16 14 -24 14 -71 2z"/>
<path d="M2207 10114 c-55 -11 -107 -36 -107 -52 0 -16 41 -52 67 -58 14 -4
46 -3 72 2 l46 9 -2 42 c-3 66 -9 70 -76 57z"/>
<path d="M2366 10058 c-20 -28 -20 -62 -1 -78 11 -9 18 -10 29 -1 20 17 39 68
32 86 -8 22 -43 18 -60 -7z"/>
<path d="M1272 10015 c-77 -47 -193 -139 -227 -182 -171 -211 -269 -396 -325
-611 -20 -77 -27 -206 -11 -216 15 -10 59 87 81 179 26 106 107 281 183 399
37 55 99 127 186 212 129 126 176 191 169 232 -3 17 -8 16 -56 -13z"/>
<path d="M1770 9952 c0 -29 15 -35 66 -27 52 7 57 20 12 28 -18 4 -43 9 -55
13 -19 5 -23 2 -23 -14z"/>
<path d="M1988 9944 c-27 -13 -48 -27 -48 -30 0 -3 7 -18 15 -34 l15 -28 55
13 c86 20 104 44 62 83 -29 27 -41 27 -99 -4z"/>
<path d="M2183 9935 c-28 -12 -33 -19 -33 -50 0 -33 2 -35 35 -35 53 0 114 28
130 61 8 15 15 30 15 34 0 11 -116 4 -147 -10z"/>
<path d="M1645 9866 c-19 -20 -25 -35 -25 -71 0 -34 -7 -55 -25 -79 -32 -43
-34 -91 -2 -100 12 -3 114 -6 227 -6 216 0 342 -10 437 -35 31 -8 79 -15 106
-15 43 0 48 2 37 15 -7 9 -45 31 -84 51 l-71 35 85 -5 c167 -10 372 -102 415
-187 22 -41 19 -55 -15 -69 -38 -16 -38 -23 5 -46 19 -10 35 -21 35 -24 0 -15
-42 -64 -76 -89 -53 -39 -172 -100 -209 -107 -27 -5 -32 -2 -46 27 l-16 33
-55 -76 c-62 -83 -95 -112 -250 -220 -88 -61 -116 -87 -162 -152 -31 -42 -72
-98 -91 -123 -19 -25 -33 -48 -31 -50 8 -9 73 30 166 100 52 39 128 85 170
103 138 58 196 92 473 279 94 64 134 126 152 238 8 48 18 95 24 105 26 49 -29
143 -133 226 -111 88 -241 116 -638 135 -224 11 -237 14 -306 74 -71 62 -68
61 -97 33z"/>
<path d="M5420 9714 c-474 -43 -890 -141 -1341 -317 -178 -69 -428 -185 -489
-226 -239 -161 -425 -292 -480 -336 -196 -160 -681 -701 -847 -945 -59 -87
-221 -426 -286 -600 -104 -277 -196 -670 -254 -1080 -26 -182 -23 -648 6 -851
11 -79 22 -166 25 -194 31 -279 35 -302 136 -770 22 -99 60 -288 85 -420 26
-132 53 -271 62 -309 l15 -68 72 6 c39 4 100 14 136 21 36 8 117 25 180 39 63
14 210 41 325 61 116 20 253 45 305 56 52 12 257 54 455 94 386 79 971 201
1124 234 120 26 138 23 133 -28 -4 -43 29 -188 123 -531 35 -129 75 -283 89
-343 14 -59 32 -120 40 -135 7 -15 35 -119 60 -232 73 -318 96 -400 207 -733
42 -124 130 -319 201 -445 122 -216 205 -315 306 -366 28 -14 77 -47 108 -72
66 -54 301 -170 419 -207 44 -14 184 -59 310 -101 127 -41 313 -97 415 -125
102 -27 229 -64 282 -80 54 -17 200 -53 325 -81 126 -28 300 -71 388 -95 237
-66 254 -70 585 -146 168 -39 382 -90 476 -114 94 -24 269 -62 390 -85 372
-69 432 -85 522 -139 l79 -49 7 52 c16 134 0 338 -44 552 -31 153 -96 301
-173 396 -24 29 -75 96 -114 148 -79 105 -92 141 -93 253 0 68 -7 79 -34 52
-18 -18 -32 -63 -48 -156 -12 -66 -11 -66 25 -144 20 -42 79 -139 131 -215
144 -210 173 -278 201 -460 15 -93 21 -290 9 -290 -3 0 -50 11 -105 25 -55 14
-196 46 -312 70 -117 24 -255 55 -307 70 -174 47 -521 126 -659 150 -123 22
-253 53 -601 145 -63 17 -189 46 -280 65 -91 19 -239 58 -330 85 -91 28 -170
50 -177 50 -6 0 -72 20 -145 44 -73 24 -160 49 -193 55 -33 7 -134 37 -225 66
-91 30 -208 66 -260 81 -106 30 -354 152 -435 214 -117 90 -236 223 -305 340
-106 182 -267 575 -310 757 -17 70 -39 155 -50 188 -10 33 -28 110 -40 170
-12 61 -30 142 -40 180 -11 39 -31 124 -45 190 -15 66 -42 158 -59 205 -18 47
-45 136 -60 199 -29 116 -122 394 -177 528 -18 41 -28 78 -23 83 5 4 30 10 55
12 l46 5 22 -101 c31 -141 95 -328 140 -411 118 -220 339 -472 511 -585 142
-92 330 -180 441 -204 26 -6 26 -5 33 71 8 97 6 330 -3 363 -5 18 -33 39 -107
80 -299 167 -423 292 -528 537 -37 87 -106 293 -106 318 0 25 49 42 281 98
229 56 623 147 635 147 8 0 -2 -275 -12 -331 l-6 -36 193 -6 c107 -4 206 -9
220 -13 l26 -6 7 111 c3 62 15 180 27 263 11 83 18 157 15 163 -2 6 -47 29
-100 50 -87 35 -100 38 -134 28 -197 -57 -326 -89 -552 -137 -146 -32 -335
-74 -420 -96 -85 -21 -207 -48 -270 -60 -63 -11 -209 -45 -325 -75 -115 -29
-289 -70 -385 -90 -96 -20 -344 -75 -550 -121 -691 -155 -1174 -263 -1325
-294 -245 -50 -399 -80 -417 -80 -13 0 -23 18 -37 68 -43 143 -89 383 -124
645 l-14 99 27 36 c96 133 285 229 570 291 109 23 142 34 263 86 48 21 90 36
93 32 3 -3 12 -83 20 -179 29 -363 88 -728 130 -809 14 -27 14 -27 60 -13 26
8 49 16 51 18 2 2 -9 73 -26 157 -69 358 -93 590 -92 919 1 278 7 343 52 590
104 567 223 828 555 1210 111 127 182 195 351 333 181 148 189 153 368 232
216 96 594 218 760 245 348 57 688 54 971 -9 187 -42 527 -157 658 -223 84
-42 299 -181 378 -244 168 -135 360 -341 479 -512 35 -51 81 -118 103 -148 65
-93 247 -518 325 -761 39 -120 76 -246 83 -280 l13 -62 57 36 57 35 -15 30
c-8 16 -24 71 -35 121 -11 51 -31 132 -45 180 -23 78 -24 92 -13 120 24 56
125 202 178 255 63 63 89 81 321 222 237 144 365 232 467 320 72 62 168 169
214 240 l16 25 37 -73 c20 -40 57 -128 80 -195 24 -67 58 -160 74 -207 40
-110 97 -309 112 -385 6 -33 33 -150 60 -260 48 -196 58 -246 81 -393 13 -87
44 -132 89 -132 51 0 52 51 4 380 -29 201 -34 228 -74 365 -16 55 -33 125 -39
157 -14 81 -90 308 -193 578 -49 129 -101 267 -115 305 -37 100 -173 407 -252
565 -96 192 -182 329 -365 580 -87 121 -336 381 -453 475 -193 155 -391 280
-683 433 -478 250 -925 382 -1505 447 -134 15 -794 29 -905 19z m570 -164
c182 -10 167 -1 241 -155 111 -233 117 -350 33 -720 -67 -297 -48 -605 51
-813 28 -59 31 -72 17 -68 -99 28 -343 66 -427 66 l-60 0 -98 93 c-108 103
-153 170 -191 286 -33 103 -33 104 -56 368 -38 453 -86 614 -249 838 -28 38
-51 73 -51 76 0 10 115 21 300 29 245 10 319 10 490 0z m570 -70 c179 -28 355
-65 509 -107 120 -33 135 -40 152 -67 73 -118 102 -447 53 -595 -22 -67 -194
-408 -261 -517 -41 -67 -54 -100 -72 -184 -31 -150 -44 -284 -33 -363 8 -60 3
-83 -12 -59 -3 5 -85 44 -182 87 -155 69 -180 84 -205 118 -59 82 -130 366
-131 522 0 102 31 315 62 426 31 110 45 317 33 474 -9 117 -14 138 -46 208
-42 91 -54 86 133 57z m-1467 -104 c144 -167 211 -327 227 -541 6 -71 15 -190
20 -262 21 -275 103 -495 231 -623 l68 -68 -32 -6 c-61 -10 -302 -36 -367 -38
-56 -3 -75 2 -134 30 -129 61 -270 182 -354 305 -36 51 -129 251 -172 367 -67
182 -177 367 -267 450 -74 69 -199 154 -250 171 -37 12 -42 24 -15 32 9 3 77
30 149 61 176 73 375 137 575 185 90 22 172 41 183 43 25 5 77 -36 138 -106z
m2433 -152 c151 -56 423 -198 466 -243 42 -45 63 -105 79 -230 16 -133 -12
-347 -60 -455 -41 -93 -175 -271 -306 -406 -192 -198 -277 -350 -292 -525 l-6
-74 -57 44 c-52 40 -164 111 -248 156 -26 15 -31 25 -43 90 -8 41 -13 117 -13
169 1 85 6 107 44 215 53 150 73 188 152 300 94 133 103 151 146 271 66 184
75 239 70 447 -4 136 -9 193 -21 226 -19 48 -19 51 -12 51 3 0 49 -16 101 -36z
m-3453 -256 c37 -21 96 -66 131 -99 58 -53 73 -78 150 -230 54 -106 99 -214
122 -287 46 -149 89 -230 164 -314 76 -83 138 -129 263 -194 112 -58 115 -53
-42 -88 -58 -13 -131 -34 -161 -46 -43 -17 -69 -21 -115 -17 -162 13 -556 198
-608 285 -9 17 -55 56 -101 87 -74 50 -97 74 -182 187 -131 174 -197 234 -309
282 -49 21 -125 47 -171 58 l-82 21 46 40 c137 118 447 339 562 401 l84 44 90
-45 c50 -25 122 -63 159 -85z m4293 -249 c86 -52 200 -165 339 -338 l60 -74 0
-101 c0 -123 -25 -209 -87 -311 -24 -38 -61 -101 -82 -140 -76 -139 -170 -237
-360 -375 -111 -80 -194 -182 -266 -324 -44 -88 -73 -186 -80 -265 -1 -12 -69
62 -118 129 -31 41 -91 114 -134 161 -69 77 -78 91 -78 125 0 65 36 215 70
297 37 90 63 124 248 331 162 182 253 301 291 381 67 141 115 352 109 481 -2
41 -1 74 1 74 2 0 41 -23 87 -51z m-5224 -243 c153 -28 273 -113 406 -291 98
-130 118 -152 198 -225 82 -75 284 -211 379 -256 39 -19 125 -48 192 -66 68
-18 123 -35 123 -38 0 -3 -35 -18 -77 -35 -42 -16 -138 -66 -212 -109 l-136
-79 -165 6 c-183 7 -355 33 -472 71 -105 35 -301 134 -421 213 -149 99 -263
139 -422 151 l-96 7 36 72 c28 57 78 119 228 284 192 212 299 309 340 309 12
-1 57 -7 99 -14z m5906 -538 c65 -98 240 -446 271 -537 17 -51 13 -109 -12
-182 -70 -206 -184 -311 -717 -662 -193 -127 -308 -225 -362 -309 -17 -26 -34
-48 -37 -48 -3 0 -14 23 -23 51 -9 27 -50 109 -92 182 l-76 132 15 85 c40 229
118 402 234 519 31 32 101 91 156 133 121 91 166 133 285 262 73 80 101 120
145 208 30 60 66 148 81 196 38 128 34 120 47 98 7 -10 45 -68 85 -128z
m-6374 -293 c98 -28 151 -54 316 -150 245 -143 469 -214 779 -245 58 -5 106
-11 107 -13 1 -1 -85 -99 -191 -217 -220 -244 -210 -238 -399 -259 -236 -27
-451 -10 -716 57 -85 22 -128 26 -225 26 -107 0 -130 -4 -212 -31 -51 -17 -93
-27 -93 -22 0 5 18 77 39 161 58 223 126 419 216 615 37 81 37 81 83 91 91 19
203 14 296 -13z m-32 -985 c326 -58 374 -59 715 -23 l53 6 -64 -139 c-35 -77
-83 -195 -106 -263 -52 -157 -62 -176 -108 -205 -73 -48 -141 -60 -317 -56
-324 9 -518 6 -560 -9 -113 -38 -243 -100 -331 -157 l-27 -18 7 149 c13 262
52 491 106 613 22 50 57 68 185 101 160 39 225 40 447 1z m475 -812 c-3 -18
-19 -112 -36 -208 -16 -96 -35 -233 -41 -305 -13 -150 -19 -161 -119 -213 -78
-42 -132 -58 -300 -93 -239 -50 -423 -135 -547 -254 l-62 -61 -7 31 c-23 111
-48 276 -65 435 -20 185 -26 416 -12 436 12 17 174 130 217 152 22 11 72 30
110 43 66 22 86 23 355 25 308 2 400 8 458 29 53 19 55 19 49 -17z"/>
<path d="M1472 9418 c-124 -185 -208 -296 -299 -392 -46 -48 -83 -91 -83 -96
0 -5 25 -17 56 -26 48 -14 65 -14 122 -4 248 46 473 153 540 257 18 27 32 55
32 61 0 14 -36 10 -197 -24 -115 -24 -173 -30 -173 -16 0 13 84 61 151 86 137
51 305 53 457 5 l63 -20 100 52 c109 56 129 77 106 112 -18 27 -83 49 -232 77
-60 11 -129 25 -151 30 -23 5 -104 9 -180 9 -77 -1 -159 2 -184 6 l-45 7 -83
-124z"/>
<path d="M2467 9533 c-16 -16 -5 -41 23 -53 34 -14 41 -34 38 -100 -3 -42 -1
-45 34 -65 l37 -20 31 30 c39 37 39 60 -2 74 -33 12 -78 48 -78 63 0 4 16 8
36 8 32 0 35 2 23 16 -25 31 -125 64 -142 47z"/>
<path d="M2240 9153 c-19 -1 -84 -8 -145 -14 l-110 -11 -75 -72 c-41 -39 -165
-140 -275 -223 -204 -156 -260 -202 -254 -207 10 -9 103 28 174 70 142 83 203
115 298 153 122 50 319 175 385 245 50 53 60 68 45 64 -5 0 -24 -3 -43 -5z"/>
<path d="M396 9048 c-34 -48 -12 -169 33 -181 17 -4 23 2 31 33 15 55 1 139
-27 157 -19 13 -23 12 -37 -9z"/>
<path d="M883 8774 c-59 -63 -111 -121 -114 -127 -4 -7 0 -46 9 -89 25 -130 2
-224 -133 -548 -87 -207 -126 -484 -92 -655 8 -44 19 -100 22 -125 10 -60 12
-62 44 -45 l29 14 6 -60 c6 -54 9 -60 28 -57 28 4 42 55 30 111 l-8 42 -47 -3
-47 -3 0 33 c0 60 21 212 42 298 13 58 51 150 117 290 128 268 123 255 177
475 44 182 46 198 51 378 4 103 3 187 0 187 -3 0 -54 -52 -114 -116z"/>
<path d="M1207 8780 c-38 -10 -71 -21 -75 -24 -12 -13 14 -61 39 -70 36 -12
73 -1 111 33 31 27 32 30 19 55 -8 14 -17 26 -20 25 -3 0 -37 -8 -74 -19z"/>
<path d="M2285 8501 c-27 -10 -81 -33 -120 -51 -101 -46 -145 -57 -286 -70
-95 -9 -143 -10 -191 -1 -108 19 -132 15 -227 -34 -80 -41 -183 -117 -136 -99
11 4 124 9 250 10 393 5 452 12 563 68 72 36 240 197 205 196 -4 -1 -30 -9
-58 -19z"/>
<path d="M615 8430 c-15 -29 -20 -95 -9 -124 10 -26 60 -21 68 7 16 60 -2 147
-30 147 -8 0 -20 -13 -29 -30z"/>
<path d="M381 7981 c-28 -18 9 -211 41 -211 21 0 69 58 74 90 5 31 1 41 -38
83 -46 49 -54 53 -77 38z"/>
<path d="M849 7885 l-31 -66 48 -77 c102 -163 124 -237 124 -424 0 -111 -10
-199 -50 -448 -17 -102 -35 -214 -41 -249 -17 -105 11 -240 77 -374 29 -60 31
-62 53 -48 11 7 6 30 -27 127 -53 153 -58 198 -37 299 9 44 30 143 46 220 39
183 65 517 49 620 -13 81 -42 202 -71 296 -23 74 -79 181 -97 187 -7 2 -26
-25 -43 -63z"/>
<path d="M742 7653 c-66 -141 -66 -138 -36 -183 65 -98 79 -255 44 -484 -42
-268 -13 -465 101 -701 63 -132 73 -145 114 -145 19 0 35 3 35 6 0 3 -11 20
-24 37 -44 57 -87 163 -108 264 -24 116 -20 243 11 413 11 58 30 157 42 220
15 80 21 154 21 245 0 141 -10 200 -47 279 -24 51 -89 136 -104 136 -4 0 -26
-39 -49 -87z"/>
<path d="M5465 7675 c-446 -47 -765 -147 -1087 -342 -190 -114 -249 -162 -454
-363 -133 -131 -164 -169 -259 -310 -176 -265 -233 -386 -309 -661 -142 -516
-176 -964 -106 -1389 10 -63 26 -177 35 -252 15 -131 28 -215 38 -248 3 -8 8
-27 11 -43 6 -26 9 -27 49 -21 62 9 158 32 165 39 3 3 -11 128 -32 278 -30
213 -41 328 -49 527 -10 249 -9 260 16 460 39 300 143 680 246 904 61 133 222
365 335 483 210 220 413 371 648 482 209 99 297 120 748 176 314 40 754 -9
1085 -120 229 -76 405 -189 635 -406 235 -223 381 -394 490 -574 144 -240 237
-458 335 -786 l25 -87 83 29 c95 33 97 37 73 143 -15 64 -92 275 -162 441 -18
44 -46 117 -63 162 -47 127 -182 378 -252 468 -168 217 -380 449 -482 529
-181 141 -477 295 -729 380 -295 98 -689 137 -1033 101z"/>
<path d="M5390 7319 c-202 -28 -383 -75 -580 -149 -160 -61 -223 -92 -351
-179 -337 -225 -597 -555 -757 -956 -101 -253 -135 -446 -163 -903 -11 -177
-11 -227 4 -405 22 -263 72 -605 91 -624 2 -2 23 1 48 7 l44 11 -22 109 c-53
262 -85 727 -65 933 6 62 16 171 21 242 13 162 42 329 76 437 30 94 177 420
234 518 178 305 526 587 893 724 246 92 440 126 753 133 332 7 565 -18 714
-77 30 -12 98 -36 150 -52 117 -38 162 -60 303 -152 245 -159 371 -266 514
-436 228 -270 388 -562 459 -833 21 -81 44 -230 44 -289 0 -29 4 -48 11 -48 7
0 38 10 70 21 56 20 59 24 59 54 0 173 -146 556 -331 871 -86 147 -205 287
-399 471 -133 126 -149 139 -291 236 -141 96 -197 125 -384 196 -153 59 -250
84 -435 115 -207 35 -551 46 -710 25z"/>
<path d="M5854 7135 c-34 -8 -77 -20 -95 -28 l-34 -15 60 -28 c33 -15 81 -40
106 -55 51 -30 86 -34 414 -44 l170 -6 -50 46 c-131 120 -369 174 -571 130z"/>
<path d="M5265 7074 c-11 -2 -45 -9 -75 -15 -278 -53 -482 -255 -573 -565
l-15 -52 118 -7 c65 -4 125 -3 133 1 8 5 43 51 77 103 34 51 83 115 111 142
180 175 520 171 815 -10 61 -38 111 -83 211 -188 72 -76 147 -147 167 -158
l36 -19 36 34 c20 19 46 55 58 79 l23 45 -136 135 c-75 75 -153 159 -174 188
-28 38 -69 72 -155 129 -131 87 -195 116 -303 140 -71 15 -313 28 -354 18z"/>
<path d="M6220 6914 c-19 -2 -58 -6 -85 -9 -74 -8 -82 -16 -57 -52 12 -17 47
-50 78 -74 l57 -43 98 -4 99 -4 0 -32 c1 -17 7 -42 15 -56 34 -60 7 -221 -50
-288 -12 -15 -64 -51 -114 -81 -50 -29 -91 -57 -91 -61 0 -10 108 -112 142
-134 26 -17 29 -17 73 3 100 44 160 111 245 275 45 86 50 103 50 161 0 57 -3
68 -30 99 -35 39 -82 61 -158 71 -51 7 -53 8 -32 22 26 18 63 12 162 -24 120
-45 236 -131 339 -251 l45 -54 121 -1 c67 -1 125 1 129 5 14 14 -92 165 -171
244 -121 121 -316 222 -509 263 -89 19 -286 33 -356 25z"/>
<path d="M1046 6874 c-13 -35 -4 -76 38 -165 51 -109 87 -211 124 -359 27
-105 27 -106 24 -440 -1 -187 2 -368 8 -409 12 -84 7 -101 -11 -44 -8 26 -14
168 -18 438 l-6 400 -44 127 c-46 137 -96 231 -123 236 -13 3 -22 -13 -39 -68
-29 -96 -23 -135 41 -270 l53 -111 -7 -137 c-3 -75 -9 -189 -12 -253 -5 -88
-3 -132 9 -185 42 -180 101 -289 182 -331 16 -9 38 -27 49 -42 11 -14 43 -50
70 -78 40 -44 55 -53 82 -53 19 0 34 4 34 8 0 4 -27 34 -61 67 -135 133 -149
195 -149 675 0 384 -4 426 -65 625 -47 154 -87 254 -131 327 -20 32 -37 58
-39 58 -1 0 -6 -7 -9 -16z"/>
<path d="M4485 6722 c-116 -60 -140 -77 -226 -162 -82 -80 -103 -108 -137
-180 -57 -120 -72 -185 -79 -340 -6 -145 8 -259 48 -393 17 -57 22 -66 37 -58
9 5 43 20 75 35 31 14 57 27 57 29 0 3 -11 59 -25 127 -16 77 -25 156 -25 212
0 149 45 300 112 376 45 52 138 136 143 130 3 -3 -2 -22 -10 -42 l-16 -38 43
7 c37 6 78 21 78 28 0 15 86 251 101 276 11 18 19 35 17 36 -9 7 -48 25 -55
25 -4 0 -66 -31 -138 -68z"/>
<path d="M5425 6710 c-147 -16 -243 -60 -340 -155 -85 -84 -121 -160 -145
-306 -22 -137 -24 -141 -69 -203 -28 -39 -39 -70 -57 -155 -12 -58 -20 -108
-18 -110 2 -2 42 14 88 37 138 69 197 147 266 352 40 119 67 158 152 226 38
29 85 77 104 106 19 29 67 82 105 118 38 36 69 73 69 83 0 19 -28 20 -155 7z"/>
<path d="M5651 6665 c-108 -62 -206 -171 -267 -300 l-34 -70 22 -17 c26 -19
122 -48 160 -48 21 0 36 14 74 68 27 37 92 112 145 167 84 88 128 143 117 148
-2 1 -16 11 -33 23 -87 61 -119 66 -184 29z"/>
<path d="M5821 6481 c-100 -105 -105 -80 63 -305 163 -218 205 -257 356 -330
l85 -41 250 0 c249 0 348 11 367 39 10 14 34 100 42 149 l7 37 -43 0 c-24 0
-90 -9 -148 -20 -177 -34 -394 -24 -484 22 -95 48 -142 102 -240 278 -48 87
-157 222 -184 228 -8 2 -40 -23 -71 -57z"/>
<path d="M4544 6381 c-95 -26 -218 -85 -243 -118 -32 -40 -51 -118 -51 -209
l0 -82 53 28 c139 76 269 109 449 117 158 7 143 -7 154 144 l7 96 -44 18 c-67
27 -234 31 -325 6z"/>
<path d="M6930 6334 c-52 -6 -156 -22 -229 -36 l-63 -12 -54 -80 c-47 -70 -52
-82 -36 -88 35 -14 154 -7 328 18 135 19 205 24 284 21 141 -6 176 -19 217
-82 28 -41 41 -52 85 -67 29 -10 55 -18 57 -18 2 0 1 24 -2 54 -11 105 -69
200 -159 257 l-52 34 -171 1 c-93 1 -186 0 -205 -2z"/>
<path d="M5226 6248 c-29 -51 -46 -109 -46 -159 l0 -36 92 -26 c97 -28 115
-38 103 -57 -9 -14 -72 -7 -150 16 l-50 15 -20 -28 c-81 -112 -187 -188 -318
-229 -42 -13 -59 -23 -61 -38 -26 -138 -24 -156 20 -156 28 0 184 54 247 86
127 65 263 173 336 267 24 32 54 60 67 63 14 4 68 1 122 -6 53 -6 166 -10 250
-8 l153 3 -61 89 c-91 134 -105 142 -272 157 -139 12 -269 40 -330 69 -23 11
-45 20 -49 20 -5 0 -19 -19 -33 -42z"/>
<path d="M846 6113 c-23 -60 46 -188 97 -181 22 3 50 48 62 98 5 23 -1 28 -74
61 -65 30 -81 34 -85 22z"/>
<path d="M3923 6072 c-69 -69 -112 -146 -149 -267 -25 -83 -27 -105 -28 -280
-1 -208 6 -258 55 -362 37 -77 102 -161 136 -174 24 -9 31 -5 74 37 76 75 78
84 34 144 l-37 51 38 34 c65 58 205 149 269 174 75 30 93 45 117 98 22 49 36
163 20 163 -23 0 -192 -65 -267 -102 -44 -22 -113 -63 -153 -91 -40 -27 -75
-48 -77 -45 -3 3 -8 48 -12 99 -7 113 8 211 43 289 24 52 25 61 19 173 -4 64
-11 117 -16 117 -5 0 -35 -26 -66 -58z"/>
<path d="M7038 6039 c-7 -101 -25 -171 -94 -349 -28 -74 -51 -136 -50 -137 1
-2 51 -10 110 -19 l108 -16 32 38 c51 61 156 394 156 494 0 60 -2 61 -146 67
l-111 6 -5 -84z"/>
<path d="M4715 6074 c-90 -11 -111 -15 -122 -22 -13 -8 -26 -71 -63 -312 -12
-74 -33 -174 -47 -222 l-26 -86 53 -99 c28 -54 55 -102 59 -106 11 -12 65 97
94 188 14 44 35 141 47 215 11 74 30 185 41 245 11 61 21 130 22 155 2 48 -1
50 -58 44z"/>
<path d="M4450 6016 c-97 -35 -99 -36 -102 -59 -6 -38 10 -127 26 -152 9 -14
30 -32 47 -41 40 -20 44 -14 59 81 6 38 18 97 25 130 8 33 13 60 12 62 -2 1
-32 -9 -67 -21z"/>
<path d="M7328 5923 c-35 -126 -36 -123 25 -175 65 -56 87 -108 87 -207 l0
-66 -95 -93 c-93 -89 -96 -94 -105 -150 -12 -69 -13 -142 -2 -142 16 0 97 32
150 60 129 66 208 153 253 279 20 56 24 84 24 191 0 124 0 125 -31 170 -68 97
-170 173 -251 186 l-39 6 -16 -59z"/>
<path d="M5640 5763 c-139 -14 -347 -82 -490 -160 -116 -63 -239 -175 -319
-290 -32 -47 -73 -152 -112 -288 -33 -119 -34 -122 -34 -325 0 -165 4 -220 19
-282 l18 -78 39 0 c45 0 44 -5 23 115 -36 194 -17 407 52 615 50 151 103 239
204 340 101 101 201 157 380 215 171 55 325 72 488 56 80 -8 155 -22 202 -38
109 -36 276 -118 337 -163 29 -22 55 -40 59 -40 4 0 59 35 123 79 64 43 139
90 167 104 38 19 55 35 63 58 6 18 10 33 8 35 -1 1 -36 -4 -77 -12 -103 -21
-309 -21 -383 -1 -58 15 -59 15 -41 -4 10 -11 51 -38 92 -61 69 -38 147 -96
139 -104 -9 -9 -107 31 -232 95 -109 55 -161 76 -235 92 -176 38 -368 55 -490
42z"/>
<path d="M7249 5659 c-21 -30 -21 -31 -4 -68 23 -52 17 -73 -29 -95 -43 -21
-65 -22 -259 -11 -149 9 -226 -10 -320 -79 -49 -35 -126 -154 -149 -231 -76
-244 35 -420 297 -470 103 -20 103 -20 69 18 -17 17 -45 51 -64 75 -18 24 -57
61 -86 83 -86 63 -116 144 -94 250 16 76 57 140 115 182 72 50 96 55 272 56
236 1 279 14 344 104 48 66 32 170 -32 202 -36 19 -34 20 -60 -16z"/>
<path d="M5633 5590 c-116 -16 -198 -42 -303 -93 -185 -90 -288 -217 -365
-451 -37 -110 -56 -247 -58 -406 -2 -127 12 -232 33 -245 10 -6 216 38 302 65
l66 20 -5 148 c-6 175 8 259 62 369 75 151 227 236 425 236 77 0 109 -5 169
-26 179 -63 246 -151 295 -387 l22 -105 54 3 c62 4 126 24 123 38 -1 5 -15 38
-30 74 -25 59 -27 76 -26 185 0 86 6 145 22 208 11 48 21 95 21 105 0 42 -289
214 -415 247 -71 18 -304 28 -392 15z"/>
<path d="M9080 5583 c0 -3 21 -42 46 -86 25 -44 59 -121 75 -172 33 -105 75
-170 124 -191 48 -20 59 -18 51 9 -4 12 -22 90 -42 172 -45 194 -40 181 -86
231 -40 43 -42 44 -104 44 -35 0 -64 -3 -64 -7z"/>
<path d="M8862 5571 l-33 -6 50 -82 c28 -46 74 -120 102 -165 75 -124 108
-153 194 -176 l40 -11 -27 22 c-20 16 -37 51 -62 124 -39 115 -83 203 -126
250 -47 52 -65 58 -138 44z"/>
<path d="M9356 5561 c21 -51 55 -170 73 -261 33 -161 36 -167 90 -194 l47 -24
-3 96 c-8 210 -42 355 -90 380 -10 5 -42 12 -71 14 -46 5 -52 3 -46 -11z"/>
<path d="M8645 5543 c-73 -15 -71 -9 -23 -62 24 -26 72 -96 106 -155 35 -58
78 -117 96 -131 45 -34 109 -55 168 -55 l50 0 -48 53 c-27 30 -78 102 -114
162 -87 144 -110 170 -164 184 -25 6 -46 10 -48 10 -2 -1 -12 -3 -23 -6z"/>
<path d="M9607 5503 c12 -28 18 -86 23 -220 7 -194 7 -198 64 -231 l32 -19 1
47 c0 26 8 93 18 149 32 189 -5 275 -127 305 l-27 6 16 -37z"/>
<path d="M8385 5484 c-52 -26 -52 -31 -4 -82 25 -26 71 -82 102 -125 59 -79
107 -117 181 -143 50 -18 166 -34 166 -22 0 4 -4 8 -8 8 -5 0 -36 25 -69 55
-45 40 -73 78 -107 142 -49 95 -63 113 -114 156 -39 32 -99 36 -147 11z"/>
<path d="M9830 5373 c0 -48 -5 -143 -12 -211 -11 -116 -10 -123 8 -137 50 -40
50 -40 85 47 27 68 33 94 32 158 0 93 -32 174 -82 209 l-31 22 0 -88z"/>
<path d="M8136 5408 l-60 -21 45 -41 c25 -23 74 -74 108 -113 51 -59 78 -80
138 -110 65 -32 85 -37 161 -40 l87 -4 -60 32 c-79 41 -115 76 -185 179 -32
47 -69 95 -82 108 -35 32 -82 35 -152 10z"/>
<path d="M4293 5364 c-40 -19 -73 -38 -73 -42 0 -4 22 -46 49 -94 27 -48 54
-102 61 -120 51 -141 71 -205 80 -262 9 -60 17 -74 75 -146 l65 -81 12 28 c6
15 14 93 16 172 4 136 2 148 -24 225 -57 170 -146 349 -175 353 -8 1 -47 -14
-86 -33z"/>
<path d="M10055 5350 c-10 -10 -25 -22 -35 -25 -15 -5 -18 -22 -22 -118 -4
-80 -11 -130 -27 -174 -21 -59 -21 -63 -5 -88 22 -33 70 -58 98 -51 20 5 78
73 106 126 7 14 12 43 11 65 -2 36 -82 260 -100 278 -4 4 -16 -2 -26 -13z"/>
<path d="M6847 5323 c-18 -29 -39 -147 -44 -249 l-6 -120 79 8 c47 5 104 19
140 35 l62 27 6 115 c4 64 9 133 12 154 l6 37 -126 0 c-68 0 -127 -3 -129 -7z"/>
<path d="M7878 5295 c-16 -9 -28 -19 -28 -23 1 -10 213 -174 253 -195 54 -28
287 -50 287 -27 0 6 -8 10 -19 10 -44 0 -158 70 -222 137 -36 38 -70 77 -76
87 -15 27 -154 34 -195 11z"/>
<path d="M7698 5194 c-27 -8 -48 -17 -48 -20 0 -23 40 -70 88 -102 131 -89
225 -117 367 -109 132 8 144 17 49 38 -146 32 -178 46 -261 122 -101 92 -113
96 -195 71z"/>
<path d="M1166 5153 c7 -43 23 -72 56 -103 29 -27 32 -26 51 18 29 65 26 75
-23 100 -24 12 -55 22 -68 22 -21 0 -22 -3 -16 -37z"/>
<path d="M3716 5173 c-3 -10 -10 -71 -16 -136 -21 -233 22 -690 79 -839 9 -24
14 -27 35 -18 13 5 89 18 168 30 78 12 168 28 199 36 31 7 110 25 175 39 180
38 284 72 284 93 0 46 -142 242 -284 393 l-79 84 -33 -39 c-19 -22 -34 -44
-34 -51 0 -6 16 -38 36 -71 69 -114 76 -133 69 -183 -10 -72 -14 -79 -48 -90
-37 -12 -208 -46 -280 -56 l-48 -6 -30 66 c-41 91 -76 231 -88 350 -9 87 -8
109 8 170 l19 70 -35 68 c-20 37 -48 77 -64 87 -26 19 -28 19 -33 3z"/>
<path d="M4170 5114 c-102 -84 -179 -167 -211 -227 -29 -56 -31 -64 -27 -141
9 -171 98 -275 235 -276 76 0 83 5 83 57 0 36 -7 55 -34 92 -44 61 -66 105
-66 134 0 48 50 126 112 174 68 53 67 50 16 164 -17 38 -36 69 -42 68 -6 0
-36 -20 -66 -45z"/>
<path d="M5680 5124 c-104 -28 -204 -106 -252 -196 -21 -40 -23 -55 -23 -198
0 -164 10 -211 48 -218 16 -3 185 43 196 54 2 2 -21 31 -52 64 -66 70 -75 102
-59 203 14 90 45 137 113 171 88 43 186 31 252 -31 34 -34 37 -96 6 -161 -29
-60 -68 -82 -146 -82 -55 0 -65 3 -92 31 -17 17 -31 34 -31 39 0 5 15 24 33
44 26 28 39 34 58 29 30 -8 39 -20 39 -55 0 -33 10 -35 33 -10 20 22 22 75 5
90 -26 20 -86 35 -113 28 -16 -4 -43 -22 -62 -41 -29 -29 -33 -40 -33 -83 0
-40 6 -57 26 -82 40 -47 93 -70 164 -70 100 0 161 43 215 151 39 76 48 131 29
179 -44 109 -221 181 -354 144z"/>
<path d="M7462 5094 c-12 -8 -22 -23 -22 -32 0 -24 143 -128 210 -153 41 -16
88 -22 189 -26 147 -7 164 2 60 32 -58 16 -144 64 -281 156 -63 43 -116 51
-156 23z"/>
<path d="M7252 5015 c-29 -13 -32 -17 -22 -35 14 -25 118 -103 180 -135 97
-49 241 -70 320 -45 29 9 28 9 -85 41 -73 21 -87 30 -173 106 -89 79 -95 83
-140 83 -26 -1 -62 -7 -80 -15z"/>
<path d="M7056 4957 c-22 -7 -41 -17 -43 -22 -4 -13 160 -131 243 -175 60 -31
76 -35 158 -38 l91 -3 -83 45 c-105 57 -132 76 -209 148 -67 62 -83 67 -157
45z"/>
<path d="M6838 4898 c-16 -5 -28 -13 -28 -17 0 -14 145 -148 178 -165 64 -33
272 -62 272 -38 0 4 -26 18 -58 32 -35 15 -83 49 -125 88 -67 62 -153 112
-192 111 -11 0 -32 -5 -47 -11z"/>
<path d="M9938 4863 c45 -62 161 -157 243 -199 27 -13 51 -24 55 -24 14 0 -4
127 -25 176 l-22 51 -52 -14 c-63 -17 -139 -10 -185 18 l-34 19 20 -27z"/>
<path d="M6057 4749 l-58 -81 33 7 c18 4 47 13 64 20 30 13 31 14 27 66 -3 30
-5 58 -6 62 -1 4 -28 -29 -60 -74z"/>
<path d="M10014 4659 c11 -75 52 -144 133 -224 42 -41 81 -75 88 -75 17 0 25
23 25 76 0 76 -52 151 -142 202 -21 12 -54 32 -75 44 l-36 22 7 -45z"/>
<path d="M7415 4609 c-55 -10 -115 -21 -132 -24 l-33 -6 0 -77 c0 -130 30
-217 139 -412 133 -236 249 -306 629 -384 139 -28 178 -33 198 -24 42 19 30
45 -36 78 -130 66 -427 280 -473 343 -81 107 -156 325 -170 491 -1 16 -6 30
-12 31 -5 2 -55 -6 -110 -16z"/>
<path d="M6863 4464 c17 -448 148 -736 414 -907 90 -59 208 -117 313 -155 190
-69 301 -87 591 -96 331 -11 561 -56 694 -137 116 -70 149 -108 225 -263 70
-142 71 -144 101 -322 27 -159 30 -195 26 -319 -5 -147 -53 -416 -95 -535 -37
-105 -124 -315 -158 -384 -61 -121 -168 -262 -230 -302 -21 -14 -25 -23 -20
-46 6 -32 3 -33 -58 -16 -44 12 -45 11 -113 -34 -37 -25 -105 -66 -149 -92
-90 -51 -95 -62 -46 -109 37 -35 169 -86 264 -103 115 -20 210 6 270 73 22 24
86 163 94 202 l6 30 -108 3 c-150 4 -149 8 10 160 69 65 135 133 147 149 11
16 54 109 95 206 59 142 82 186 116 220 42 43 150 108 162 96 3 -3 6 -19 6
-35 0 -24 4 -28 28 -28 38 0 52 32 52 118 0 66 1 68 36 91 101 69 184 214 185
326 1 36 -1 68 -3 71 -3 2 -20 -36 -37 -86 -52 -145 -127 -232 -247 -287 -68
-31 -74 -26 -74 62 0 72 18 115 90 210 124 167 198 399 160 501 -6 15 -13 25
-15 22 -3 -2 -12 -45 -20 -94 -16 -88 -57 -194 -103 -267 -27 -40 -85 -82
-102 -72 -15 9 -12 210 4 275 18 72 44 146 67 192 52 102 83 223 73 282 -6 36
-8 38 -19 22 -8 -10 -19 -50 -25 -89 -19 -112 -90 -241 -151 -272 l-30 -16
-16 38 c-13 28 -17 67 -18 148 l0 110 52 121 c29 67 60 149 69 183 16 65 16
139 -1 132 -5 -2 -28 -56 -51 -120 -43 -125 -72 -177 -127 -229 -42 -40 -68
-37 -94 11 -32 60 -23 130 30 242 68 143 161 445 137 445 -7 0 -49 -91 -113
-245 -14 -33 -50 -109 -81 -169 -31 -60 -56 -115 -56 -122 0 -28 -22 -24 -65
12 -66 53 -88 89 -87 135 2 50 23 99 68 162 28 39 33 52 22 58 -19 12 -27 11
-88 -12 -52 -20 -67 -21 -255 -15 -351 12 -726 42 -887 71 -91 17 -179 51
-242 94 -73 51 -210 230 -271 356 -78 160 -115 279 -122 398 l-6 97 -52 0
c-29 0 -80 3 -115 7 l-63 6 6 -159z"/>
<path d="M10040 4419 c0 -12 9 -52 20 -90 20 -66 22 -68 108 -132 48 -36 105
-84 127 -106 55 -57 69 -55 60 12 -12 89 -37 132 -99 172 -31 20 -90 65 -130
100 -41 36 -77 65 -80 65 -3 0 -6 -10 -6 -21z"/>
<path d="M6107 4418 l-37 -10 25 -20 c32 -25 63 -84 86 -163 l18 -60 -2 130
-2 130 -25 2 c-14 1 -42 -3 -63 -9z"/>
<path d="M5825 4353 c-27 -8 -60 -17 -72 -20 -12 -3 -32 -16 -44 -29 -32 -34
-38 -127 -11 -170 41 -64 157 -86 223 -41 32 22 34 27 34 76 -1 46 -5 57 -29
77 -28 25 -87 32 -114 15 -19 -12 -32 -77 -19 -90 6 -6 24 -11 40 -11 24 0 28
3 22 18 -20 46 -18 62 7 62 33 0 48 -18 48 -56 0 -39 -38 -74 -80 -74 -37 0
-93 39 -105 74 -21 62 54 136 140 136 86 0 138 -51 152 -151 5 -33 13 -54 21
-53 6 1 26 2 43 3 l32 1 -6 60 c-8 69 -23 104 -64 141 -53 49 -125 60 -218 32z"/>
<path d="M5505 4266 l-80 -23 2 -46 c2 -82 93 -310 127 -323 20 -8 72 22 133
74 l52 45 -37 27 c-49 36 -68 58 -87 103 -17 42 -20 119 -5 148 14 25 -1 24
-105 -5z"/>
<path d="M10095 4153 c2 -10 9 -47 16 -83 18 -95 32 -118 93 -146 28 -13 63
-25 76 -26 14 -2 36 -13 50 -26 14 -13 33 -28 43 -33 27 -15 22 25 -12 96 -33
70 -111 151 -192 200 -64 39 -79 43 -74 18z"/>
<path d="M6180 4059 c-213 -18 -432 -118 -564 -258 l-29 -30 26 -40 c61 -93
191 -211 231 -211 13 0 63 27 112 60 100 68 181 98 289 106 91 8 233 -17 289
-50 81 -47 153 -147 193 -266 l22 -65 182 -3 182 -2 -7 86 c-11 148 -74 308
-171 434 -114 148 -223 207 -435 236 -115 15 -164 15 -320 3z"/>
<path d="M4452 4030 c-57 -15 -105 -30 -107 -32 -2 -2 1 -55 7 -118 12 -140 4
-402 -17 -525 -9 -49 -23 -135 -31 -190 -36 -235 -87 -403 -154 -515 -64 -105
-171 -245 -220 -287 -263 -228 -459 -321 -958 -457 -262 -71 -345 -91 -485
-116 -64 -11 -148 -27 -186 -35 -105 -22 -176 -32 -426 -61 -180 -20 -260 -25
-370 -21 -77 2 -147 7 -156 11 -13 6 -32 -13 -78 -75 -34 -45 -58 -86 -53 -91
25 -25 353 -15 717 23 237 24 576 77 960 150 153 28 352 89 535 164 85 34 173
68 195 75 77 24 161 73 306 176 113 81 178 138 293 255 81 83 154 165 161 182
7 18 21 73 30 122 9 50 34 160 55 245 59 241 88 505 97 891 4 142 2 248 -3
251 -5 3 -55 -7 -112 -22z"/>
<path d="M4230 3980 c-19 -4 -66 -13 -105 -20 -107 -19 -369 -81 -377 -88 -3
-4 1 -68 9 -142 14 -122 14 -143 0 -230 -19 -114 -84 -350 -120 -439 -15 -35
-53 -104 -85 -155 -32 -50 -76 -122 -97 -161 -44 -80 -106 -171 -181 -265 -60
-76 -144 -200 -144 -213 0 -14 93 0 156 24 93 35 202 116 316 233 59 61 110
108 113 104 4 -4 -8 -35 -27 -70 -73 -139 -288 -305 -570 -442 -95 -46 -182
-92 -193 -101 -38 -30 99 -6 263 47 181 58 341 136 512 249 189 125 279 225
376 419 85 171 161 453 188 700 8 74 21 181 27 237 10 77 10 126 1 204 -6 56
-14 105 -19 109 -4 4 -24 4 -43 0z"/>
<path d="M10169 3847 c48 -127 85 -165 170 -177 33 -5 86 -20 116 -34 61 -28
65 -23 34 40 -36 75 -106 124 -243 170 -85 29 -88 29 -77 1z"/>
<path d="M3490 3823 c-47 -8 -87 -17 -89 -19 -2 -2 -5 -93 -6 -201 -3 -277
-23 -384 -105 -555 -27 -56 -50 -107 -50 -113 0 -5 18 10 41 35 l40 45 -6 -53
c-8 -70 -38 -150 -91 -239 l-43 -73 39 0 c36 0 44 5 81 53 111 138 259 395
303 523 54 162 76 391 53 557 l-8 57 -37 -1 c-20 0 -75 -8 -122 -16z"/>
<path d="M9120 3729 c-25 -16 -65 -36 -90 -43 l-44 -13 26 -17 27 -17 -36 -47
c-46 -60 -63 -101 -63 -151 0 -41 17 -91 31 -91 14 0 68 76 104 148 32 64 105
242 105 257 0 10 -15 3 -60 -26z"/>
<path d="M2573 3629 c-36 -10 -34 -4 -53 -214 -7 -84 -26 -178 -61 -315 -91
-352 -169 -571 -289 -809 -39 -79 -69 -145 -67 -147 8 -8 81 72 119 130 55 86
200 383 243 499 54 148 101 318 124 454 22 133 40 414 25 412 -5 0 -23 -5 -41
-10z"/>
<path d="M6233 3629 c-18 -5 -39 -20 -47 -32 -33 -54 -55 -343 -56 -737 -1
-279 -9 -257 96 -290 73 -22 260 -47 271 -36 4 4 11 150 14 324 6 272 9 330
28 407 27 119 28 236 1 280 -32 52 -111 88 -200 91 -41 2 -90 -1 -107 -7z"/>
<path d="M10250 3621 c0 -16 59 -56 140 -96 41 -20 91 -52 110 -70 25 -23 48
-35 82 -39 25 -4 61 -17 80 -29 27 -19 34 -30 36 -63 2 -22 -2 -53 -8 -68 -10
-28 -11 -28 -73 -22 -92 11 -102 20 -153 144 -19 47 -62 86 -106 97 -24 6 -26
5 -21 -17 3 -12 18 -36 33 -53 15 -16 59 -77 96 -135 l69 -105 0 -87 c0 -77 2
-88 17 -88 44 0 148 134 148 192 0 9 11 29 24 45 34 41 56 88 56 122 0 68
-254 222 -430 260 -30 7 -65 14 -77 17 -13 2 -23 0 -23 -5z"/>
<path d="M2340 3593 c-14 -2 -65 -10 -115 -18 -49 -9 -103 -19 -120 -23 l-30
-8 -6 -215 c-8 -253 -20 -313 -107 -564 -166 -475 -212 -570 -410 -850 -106
-151 -121 -188 -79 -199 34 -8 143 12 187 34 67 34 100 71 201 224 137 205
235 409 324 671 26 77 55 156 65 175 23 47 112 340 141 465 16 69 23 132 24
205 l0 105 -25 1 c-14 1 -36 0 -50 -3z"/>
<path d="M9273 3549 c-7 -27 -36 -109 -64 -181 -40 -99 -50 -134 -42 -147 6
-9 16 -16 24 -16 25 0 75 101 108 218 32 114 33 116 15 146 -10 17 -21 31 -24
31 -3 0 -11 -23 -17 -51z"/>
<path d="M10574 3344 c3 -9 6 -27 6 -40 0 -21 5 -24 34 -24 30 0 34 3 39 33 6
43 3 47 -45 47 -32 0 -39 -3 -34 -16z"/>
<path d="M6575 3198 c-3 -18 -5 -112 -3 -208 l3 -175 85 -2 c442 -11 864 -70
1182 -164 128 -37 271 -154 320 -260 18 -36 29 -48 46 -49 21 0 22 -2 9 -27
-8 -16 -17 -64 -20 -108 -3 -47 -15 -104 -28 -138 l-22 -57 66 -99 c36 -54 82
-130 101 -169 20 -39 41 -74 47 -78 17 -10 71 56 118 146 57 109 84 246 85
425 1 141 -7 190 -46 315 -37 116 -84 196 -166 282 -156 163 -257 217 -585
308 -156 44 -642 90 -949 90 l-237 0 -6 -32z"/>
<path d="M9363 3107 c-48 -116 -63 -168 -63 -215 0 -30 2 -32 28 -26 15 4 32
12 38 18 17 17 42 87 60 167 13 59 14 78 4 115 -7 24 -15 44 -19 44 -3 0 -25
-46 -48 -103z"/>
<path d="M8270 3144 c174 -154 253 -255 366 -469 47 -90 60 -138 74 -275 12
-123 -2 -289 -41 -484 -24 -123 -37 -164 -74 -236 -148 -286 -327 -455 -547
-516 -172 -48 -550 -14 -754 66 -175 69 -371 198 -510 335 -81 80 -109 125
-175 279 l-48 111 -73 11 c-40 6 -116 21 -168 33 -52 11 -112 21 -132 21 l-38
0 0 -45 c0 -42 -2 -45 -27 -45 -40 -1 -102 -31 -145 -72 -36 -33 -36 -36 -27
-77 13 -58 33 -95 78 -145 47 -50 61 -77 61 -111 l0 -26 -31 18 c-52 30 -162
145 -192 201 -26 47 -28 62 -30 166 -2 110 -3 116 -32 158 -17 23 -49 53 -70
65 -70 40 -180 26 -199 -24 -5 -13 1 -14 47 -9 53 7 55 6 86 -30 38 -43 37
-71 -4 -132 -14 -20 -25 -47 -25 -59 0 -78 83 -195 280 -394 104 -106 124
-121 210 -163 94 -45 369 -140 378 -131 3 3 -15 26 -39 52 -103 110 -182 248
-195 336 l-6 42 23 -35 c95 -147 119 -178 200 -250 167 -150 240 -194 522
-319 385 -170 689 -228 1005 -191 181 21 445 150 629 308 123 106 261 292 290
392 8 30 28 80 43 110 50 100 113 384 132 598 19 221 -13 440 -92 624 -85 198
-159 267 -355 334 -73 24 -96 27 -270 31 l-190 4 65 -57z"/>
<path d="M5350 3063 c1 -278 139 -558 360 -728 123 -94 298 -178 472 -224 104
-28 290 -60 368 -63 l65 -3 0 196 0 196 -120 26 c-66 15 -151 32 -190 38 -79
13 -215 59 -289 96 -102 52 -198 167 -226 271 -11 42 -13 43 -133 103 -133 67
-241 134 -271 167 -11 12 -23 22 -28 22 -4 0 -8 -44 -8 -97z"/>
<path d="M9512 2760 c-42 -71 -62 -138 -68 -225 l-5 -70 25 40 c15 22 35 64
46 93 21 55 44 184 37 205 -2 6 -18 -13 -35 -43z"/>
<path d="M6736 2712 c-50 -152 -73 -552 -42 -728 43 -248 150 -386 430 -552
167 -100 255 -122 502 -125 146 -2 247 6 272 22 18 11 -29 179 -72 257 -47 84
-63 93 -202 110 -65 8 -141 19 -169 25 -129 30 -252 127 -306 242 -64 138 -73
280 -34 527 14 85 25 174 25 196 l0 41 -47 7 c-27 3 -102 9 -168 12 -66 3
-132 7 -147 9 -24 4 -28 0 -42 -43z"/>
<path d="M9607 2369 c-21 -53 -57 -122 -82 -155 -24 -33 -53 -82 -65 -108
l-20 -48 27 6 c54 14 96 59 145 157 39 78 47 103 47 149 -1 103 -12 103 -52
-1z"/>
<path d="M7179 2289 c-1 -165 1 -201 16 -255 18 -61 19 -62 236 -124 173 -49
199 -61 310 -144 98 -72 123 -102 172 -201 33 -67 107 -275 107 -302 0 -21 19
-16 108 28 90 45 177 120 187 162 10 37 -45 205 -105 325 -42 83 -68 119 -156
213 -145 155 -215 214 -309 259 -140 68 -337 122 -502 137 l-63 6 -1 -104z"/>
<path d="M9714 2053 c-34 -48 -80 -107 -102 -130 -26 -27 -39 -48 -36 -58 9
-23 -15 -143 -37 -187 -15 -30 -25 -38 -37 -33 -39 15 -113 26 -153 23 -37 -3
-46 -7 -58 -33 -8 -16 -17 -52 -19 -78 l-5 -49 42 30 c52 38 99 47 145 28 55
-23 59 -65 17 -178 -11 -32 -21 -80 -21 -107 0 -33 -6 -56 -18 -72 l-19 -22
-21 69 c-36 119 -116 214 -179 214 -28 0 -31 -12 -36 -160 -4 -98 -10 -131
-41 -224 -46 -140 -182 -434 -213 -463 -13 -13 -48 -30 -78 -39 -30 -8 -55
-19 -55 -23 0 -4 14 -20 31 -37 25 -24 38 -29 78 -28 102 1 174 74 251 254 23
52 70 153 106 224 76 152 78 176 34 297 -17 46 -30 91 -28 101 3 17 5 17 24 4
19 -14 44 -64 84 -173 7 -18 19 -33 27 -33 43 0 133 71 163 130 18 36 44 140
36 147 -2 3 20 51 49 106 91 172 139 361 133 515 l-3 74 -61 -89z"/>
<path d="M9370 1494 c-36 -41 -30 -57 20 -52 39 4 55 25 46 61 -9 37 -28 34
-66 -9z"/>
<path d="M9342 960 c-18 -4 -35 -9 -36 -11 -12 -12 -137 -299 -131 -299 2 0
27 15 56 33 52 32 53 32 183 32 124 0 133 -1 177 -27 56 -33 75 -71 64 -131
-10 -60 -9 -78 6 -114 l14 -33 44 35 c51 40 62 35 53 -28 -6 -44 -4 -44 56 0
l32 24 0 -56 c0 -41 3 -56 13 -53 22 8 37 52 37 117 0 56 -4 68 -34 110 -18
25 -57 93 -86 151 -28 58 -64 118 -78 134 -26 27 -114 76 -139 76 -7 0 -23 11
-37 25 -22 22 -33 25 -93 24 -37 -1 -83 -5 -101 -9z"/>
<path d="M9308 653 c-31 -8 -20 -18 56 -47 71 -27 74 -29 64 -52 -10 -22 -12
-22 -40 -8 -32 17 -118 44 -118 38 0 -2 7 -19 16 -38 19 -38 45 -53 107 -61
23 -3 54 -8 70 -10 32 -5 36 10 5 19 l-23 7 22 11 c15 7 34 8 62 1 32 -8 41
-8 45 3 4 11 -7 14 -49 14 -42 0 -55 3 -55 15 0 8 -4 15 -10 15 -5 0 -10 23
-10 50 l0 50 -62 -1 c-35 -1 -71 -3 -80 -6z"/>
<path d="M9498 625 c-18 -39 7 -59 61 -50 23 4 41 9 41 13 0 14 -55 62 -72 62
-10 0 -24 -11 -30 -25z"/>
<path d="M9505 445 c-27 -7 -67 -14 -87 -14 -53 -1 -47 -14 14 -29 28 -6 97
-30 152 -51 56 -22 136 -50 179 -62 l77 -23 21 21 22 21 -59 12 c-62 12 -164
63 -225 111 -20 16 -38 28 -40 28 -2 -1 -26 -7 -54 -14z"/>
</g>
</svg>
